# xmcd
#
# Track frame offsets: 
#        150
#        7485
#        30905
#        46944
#        69894
#        90767
#        107940
#        129632
#
# Disc length: 1984 seconds
#
# Revision: 0
# Processed by: cddbd v1.5.2PL0 Copyright (c) Steve Scherf et al.
# Submitted via: ExactAudioCopy v1.2
#
DISCID=5c07be08
DTITLE=Gary Clark, Jr. - Gary Clark, Jr.
DYEAR=2010
DGENRE=Blues
TTITLE0=Intro
TTITLE1=Bright Lights
TTITLE2=Don't Owe You a Thang
TTITLE3=Please Come Home
TTITLE4=The Life
TTITLE5=Things Are Changing
TTITLE6=Outro
TTITLE7=Breakdown
EXTD=
EXTT0=
EXTT1=
EXTT2=
EXTT3=
EXTT4=
EXTT5=
EXTT6=
EXTT7=
PLAYORDER=
